<?xml version="1.0" encoding="UTF-8"?>
<!DOCTYPE svg PUBLIC "-//W3C//DTD SVG 1.1//EN" "http://www.w3.org/Graphics/SVG/1.1/DTD/svg11.dtd">
<!-- Creator: CorelDRAW X7 -->
<svg xmlns="http://www.w3.org/2000/svg" xml:space="preserve" width="500px" height="707px" version="1.1" style="shape-rendering:geometricPrecision; text-rendering:geometricPrecision; image-rendering:optimizeQuality; fill-rule:evenodd; clip-rule:evenodd"
viewBox="0 0 500 707"
 xmlns:xlink="http://www.w3.org/1999/xlink">
 <defs>
  <style type="text/css">
   <![CDATA[
    .str0 {stroke:#2B2A29;stroke-width:0.47619}
    .fil0 {fill:#FFED00}
    .fil1 {fill:#E5097F}
   ]]>
  </style>
 </defs>
 <g id="Vrstva_x0020_1">
  <metadata id="CorelCorpID_0Corel-Layer"/>
  <ellipse class="fil0 str0" cx="277" cy="228" rx="57" ry="99"/>
  <path class="fil1 str0" d="M163 156l44 37 6 6c0,0 0,1 -1,1l0 1c0,0 0,1 0,1l0 1c0,1 0,1 -1,2l0 0c0,1 0,1 0,2l0 1c0,0 0,1 0,1l-1 1c0,0 0,1 0,2l0 0c0,1 0,2 0,2l0 1c0,0 0,1 0,2l-1 0c0,1 0,1 0,2l0 0c0,1 0,2 0,3l0 0c0,0 0,1 0,2l0 0c0,1 0,2 0,3l0 0c0,0 0,1 0,2l0 0c-1,1 -1,2 -1,3l0 0c0,1 0,3 0,5 0,1 0,1 0,2l0 0c0,1 0,2 0,3l0 0c0,1 0,1 1,2l0 1c0,0 0,1 0,2l0 0c0,1 0,2 0,2l0 1c0,0 0,1 0,2l0 0c0,1 0,1 0,2l0 0c0,1 0,2 0,2l1 1c0,1 0,1 0,2l0 0c0,1 0,2 0,2l0 1c0,0 0,1 0,2l1 0c0,1 0,1 0,2l0 0c0,1 0,2 0,2l0 1c1,0 1,1 1,1l0 1c0,1 0,1 0,2l0 0c1,1 1,1 1,2 0,0 0,0 0,1 0,0 0,1 0,1 0,0 0,1 1,1 0,0 0,1 0,1 0,1 0,1 0,1 0,1 0,1 0,1 1,1 1,1 1,1 0,1 0,1 0,1 0,1 0,1 0,1 0,1 1,1 1,2 0,0 0,0 0,0 0,1 0,1 1,2 0,0 0,0 0,0 0,1 0,1 0,2 0,0 0,0 1,1 0,0 0,0 0,1 0,0 0,0 0,1 0,0 1,0 1,0 0,1 0,1 0,2 0,0 0,0 1,0 0,1 0,1 0,2 0,0 0,0 0,0 0,1 1,1 1,1 0,1 0,1 0,1 0,1 1,1 1,1 0,0 0,1 0,1 0,0 0,1 1,1 0,0 0,0 0,1 0,0 0,0 1,1 0,0 0,0 0,0 0,1 0,1 1,2 0,0 0,0 0,0 0,1 0,1 1,1l0 1c0,0 0,1 1,1 0,0 0,0 0,1 0,0 0,0 0,0 1,1 1,1 1,1l0 0 -11 40 -54 0 -54 0 -17 -60 -17 -60 44 -38 44 -37z"/>
 </g>
</svg>
